<svg width="16" height="16" viewBox="0 0 16 16" fill="none" xmlns="http://www.w3.org/2000/svg">
<path d="M5 8.00003C5 9.65685 6.34314 11 8.00003 11C9.65685 11 11 9.65685 11 8.00003C11 6.34314 9.65685 5 8.00003 5C6.34314 5 5 6.34314 5 8.00003Z" stroke="#87898E" stroke-width="1.5" stroke-linecap="round" stroke-linejoin="round"/>
<path d="M11 8V8.99999C11 10.1046 11.8954 11 13 11C13.7095 11 14.3328 10.6305 14.6878 10.0734C14.8855 9.7633 15 9.39502 15 8.99999V8C15 4.13401 11.866 1 8 1C4.13401 1 1 4.13401 1 8C1 11.866 4.13401 15 8 15C9.48727 15 10.8662 14.5362 12 13.7453" stroke="#87898E" stroke-width="1.5" stroke-linecap="round" stroke-linejoin="round"/>
</svg>
