<svg width="48" height="48" viewBox="0 0 48 48" fill="none" xmlns="http://www.w3.org/2000/svg">
<circle cx="24" cy="24" r="24" fill="#2F8F8F" fill-opacity="0.61"/>
<path d="M24.0001 6.08447C15.607 6.08447 8.78882 12.9103 8.78882 21.3126C8.78882 29.715 15.607 36.5408 24.0001 36.5408H24.8949V41.9155C33.5921 37.7232 39.2114 29.3746 39.2114 21.3126C39.2114 12.9103 32.3931 6.08447 24.0001 6.08447ZM25.7896 32.0619H22.2105V28.4788H25.7896V32.0619ZM25.7896 25.7915H22.2105C22.2105 19.969 27.5792 20.4169 27.5792 16.8338C27.5792 14.8631 25.9686 13.2507 24.0001 13.2507C22.0316 13.2507 20.421 14.8631 20.421 16.8338H16.8418C16.8418 12.8744 20.0452 9.66757 24.0001 9.66757C27.955 9.66757 31.1583 12.8744 31.1583 16.8338C31.1583 21.3126 25.7896 21.7605 25.7896 25.7915Z" fill="black"/>
</svg>
