<svg width="48" height="48" viewBox="0 0 48 48" fill="none" xmlns="http://www.w3.org/2000/svg">
<circle cx="24" cy="24" r="24" fill="#8A8484"/>
<path d="M33.2497 26.8732V16.7324C33.2497 15.338 32.0605 14.1971 30.607 14.1971H12.1076C10.6541 14.1971 9.46484 15.338 9.46484 16.7324V26.8732C9.46484 28.2676 10.6541 29.4084 12.1076 29.4084H30.607C32.0605 29.4084 33.2497 28.2676 33.2497 26.8732ZM21.3573 25.6056C19.1638 25.6056 17.3931 23.907 17.3931 21.8028C17.3931 19.6986 19.1638 18 21.3573 18C23.5508 18 25.3214 19.6986 25.3214 21.8028C25.3214 23.907 23.5508 25.6056 21.3573 25.6056ZM38.5353 18V31.9436C38.5353 33.338 37.346 34.4788 35.8925 34.4788H13.429V31.9436H35.8925V18H38.5353Z" fill="black"/>
</svg>
