<svg width="24" height="24" viewBox="0 0 24 24" fill="none" xmlns="http://www.w3.org/2000/svg">
<path d="M12 22C17.523 22 22 17.523 22 12C22 6.477 17.523 2 12 2C6.477 2 2 6.477 2 12C2 17.523 6.477 22 12 22Z" stroke="black" stroke-width="1.5" stroke-linecap="round" stroke-linejoin="round"/>
<path d="M8.00007 3H9.00007C7.05011 8.84157 7.05011 15.1584 9.00007 21H8.00007M15.0001 3C16.95 8.84157 16.95 15.1584 15.0001 21" stroke="black" stroke-width="1.5" stroke-linecap="round" stroke-linejoin="round"/>
<path d="M3 16.0001V15.0001C8.84157 16.95 15.1584 16.95 21 15.0001V16.0001M3 9.00007C8.84157 7.05011 15.1584 7.05011 21 9.00007" stroke="black" stroke-width="1.5" stroke-linecap="round" stroke-linejoin="round"/>
</svg>
