<svg width="24" height="24" viewBox="0 0 24 24" fill="none" xmlns="http://www.w3.org/2000/svg">
<path d="M6 10V8C6 4.69 7 2 12 2C17 2 18 4.69 18 8V10M12 18.5C12.663 18.5 13.2989 18.2366 13.7678 17.7678C14.2366 17.2989 14.5 16.663 14.5 16C14.5 15.337 14.2366 14.7011 13.7678 14.2322C13.2989 13.7634 12.663 13.5 12 13.5C11.337 13.5 10.7011 13.7634 10.2322 14.2322C9.76339 14.7011 9.5 15.337 9.5 16C9.5 16.663 9.76339 17.2989 10.2322 17.7678C10.7011 18.2366 11.337 18.5 12 18.5Z" stroke="black" stroke-width="1.5" stroke-linecap="round" stroke-linejoin="round"/>
<path d="M17 22H7C3 22 2 21 2 17V15C2 11 3 10 7 10H17C21 10 22 11 22 15V17C22 21 21 22 17 22Z" stroke="black" stroke-width="1.5" stroke-linecap="round" stroke-linejoin="round"/>
</svg>
