<svg width="48" height="48" viewBox="0 0 48 48" fill="none" xmlns="http://www.w3.org/2000/svg">
<circle cx="24" cy="24" r="24" fill="#C39858"/>
<path d="M23.6619 25.4366C26.0495 25.4366 28.1588 26.0079 29.8726 26.755C31.4546 27.458 32.4507 29.04 32.4507 30.7538V33.1268H14.8732V30.7685C14.8732 29.04 15.8693 27.458 17.4512 26.7696C19.165 26.0079 21.2743 25.4366 23.6619 25.4366ZM11.9436 25.8028C13.5549 25.8028 14.8732 24.4845 14.8732 22.8733C14.8732 21.262 13.5549 19.9437 11.9436 19.9437C10.3324 19.9437 9.01405 21.262 9.01405 22.8733C9.01405 24.4845 10.3324 25.8028 11.9436 25.8028ZM13.5988 27.4141C13.0569 27.3262 12.5149 27.2676 11.9436 27.2676C10.4935 27.2676 9.11659 27.5752 7.87152 28.1172C6.78757 28.5859 6.08447 29.6406 6.08447 30.8271V33.1268H12.676V30.7685C12.676 29.5527 13.0129 28.4102 13.5988 27.4141ZM35.3802 25.8028C36.9915 25.8028 38.3098 24.4845 38.3098 22.8733C38.3098 21.262 36.9915 19.9437 35.3802 19.9437C33.769 19.9437 32.4507 21.262 32.4507 22.8733C32.4507 24.4845 33.769 25.8028 35.3802 25.8028ZM41.2394 30.8271C41.2394 29.6406 40.5363 28.5859 39.4524 28.1172C38.2073 27.5752 36.8304 27.2676 35.3802 27.2676C34.809 27.2676 34.267 27.3262 33.725 27.4141C34.311 28.4102 34.6479 29.5527 34.6479 30.7685V33.1268H41.2394V30.8271ZM23.6619 15.5493C26.0935 15.5493 28.0563 17.5121 28.0563 19.9437C28.0563 22.3752 26.0935 24.338 23.6619 24.338C21.2304 24.338 19.2676 22.3752 19.2676 19.9437C19.2676 17.5121 21.2304 15.5493 23.6619 15.5493Z" fill="black"/>
</svg>
