<svg width="24" height="24" viewBox="0 0 24 24" fill="none" xmlns="http://www.w3.org/2000/svg">
<path opacity="0.34" d="M12 15C12.7956 15 13.5587 14.6839 14.1213 14.1213C14.6839 13.5587 15 12.7956 15 12C15 11.2044 14.6839 10.4413 14.1213 9.87868C13.5587 9.31607 12.7956 9 12 9C11.2044 9 10.4413 9.31607 9.87868 9.87868C9.31607 10.4413 9 11.2044 9 12C9 12.7956 9.31607 13.5587 9.87868 14.1213C10.4413 14.6839 11.2044 15 12 15V15Z" stroke="black" stroke-width="1.5" stroke-miterlimit="10" stroke-linecap="round" stroke-linejoin="round"/>
<path d="M2 12.8809V11.1209C2 10.0809 2.85 9.22091 3.9 9.22091C5.71 9.22091 6.45 7.94091 5.54 6.37091C5.02 5.47091 5.33 4.30091 6.24 3.78091L7.97 2.79091C8.76 2.32091 9.78 2.60091 10.25 3.39091L10.36 3.58091C11.26 5.15091 12.74 5.15091 13.65 3.58091L13.76 3.39091C14.23 2.60091 15.25 2.32091 16.04 2.79091L17.77 3.78091C18.68 4.30091 18.99 5.47091 18.47 6.37091C17.56 7.94091 18.3 9.22091 20.11 9.22091C21.15 9.22091 22.01 10.0709 22.01 11.1209V12.8809C22.01 13.9209 21.16 14.7809 20.11 14.7809C18.3 14.7809 17.56 16.0609 18.47 17.6309C18.99 18.5409 18.68 19.7009 17.77 20.2209L16.04 21.2109C15.25 21.6809 14.23 21.4009 13.76 20.6109L13.65 20.4209C12.75 18.8509 11.27 18.8509 10.36 20.4209L10.25 20.6109C9.78 21.4009 8.76 21.6809 7.97 21.2109L6.24 20.2209C5.8041 19.9699 5.48558 19.5563 5.35435 19.0707C5.22311 18.5851 5.28988 18.0673 5.54 17.6309C6.45 16.0609 5.71 14.7809 3.9 14.7809C2.85 14.7809 2 13.9209 2 12.8809V12.8809Z" stroke="black" stroke-width="1.5" stroke-miterlimit="10" stroke-linecap="round" stroke-linejoin="round"/>
</svg>
