<svg width="21" height="16" viewBox="0 0 21 16" fill="none" xmlns="http://www.w3.org/2000/svg">
<path d="M10.5 1C6.27778 1 2.58333 1.36111 2.05556 1.72222C1.66625 1.98859 1.27694 3.9339 1.09946 5.83339C1.03633 6.509 1 7.2421 1 8.0001C1 10.8889 1.52778 13.9167 2.05556 14.2778C2.58333 14.6389 6.27778 15 10.5 15C14.7222 15 18.4167 14.6389 18.9444 14.2778C19.2556 14.0649 19.5667 12.599 19.7697 11.2501C19.9111 10.3108 20 9.1859 20 8.0001C20 7.2421 19.9637 6.509 19.9005 5.83339C19.8649 5.45201 19.8207 5.08894 19.7697 4.75005C19.5667 3.40107 19.2556 1.93511 18.9444 1.72222C18.4167 1.36111 14.7222 1 10.5 1Z" stroke="#2C3988" stroke-width="1.5" stroke-linecap="round" stroke-linejoin="round"/>
<path d="M19.81 5H12.5176C10.851 5 9.5 6.3431 9.5 8C9.5 9.6569 10.851 11 12.5176 11H19.81" stroke="#2C3988" stroke-width="1.5" stroke-linecap="round" stroke-linejoin="round"/>
<path d="M12.5 8V8.01" stroke="#2C3988" stroke-width="1.5" stroke-linecap="round" stroke-linejoin="round"/>
</svg>
