<svg width="48" height="48" viewBox="0 0 48 48" fill="none" xmlns="http://www.w3.org/2000/svg">
<circle cx="24" cy="24" r="24" fill="#6C78B8"/>
<path d="M36.877 24.6233L37.7811 21.6301L31.7947 19.8219L33.6029 13.8355L30.6098 12.9314L28.8015 18.9178L22.8151 17.1095L24.6234 11.1231L21.6302 10.219L19.8219 16.2054L13.8356 14.3971L12.9314 17.3903L18.9178 19.1986L17.1096 25.185L11.1232 23.3767L10.2191 26.3699L16.2054 28.1782L14.3972 34.1645L17.3904 35.0687L19.1986 29.0823L25.185 30.8905L23.3768 36.8769L26.37 37.781L28.1782 31.7947L34.1646 33.6029L35.0687 30.6097L29.0823 28.8015L30.8906 22.8151L36.877 24.6233ZM26.0891 27.8973L20.1028 26.0891L21.911 20.1027L27.8974 21.911L26.0891 27.8973Z" fill="black"/>
</svg>
