<svg width="48" height="48" viewBox="0 0 48 48" fill="none" xmlns="http://www.w3.org/2000/svg">
<circle cx="24" cy="24" r="24" fill="#C9A2E7"/>
<path d="M12.7007 28.8072C11.5866 26.393 12.6434 23.5249 15.0576 22.4107L20.705 19.8046L19.4671 17.1221L13.8197 19.7282C9.92302 21.5265 8.21996 26.1485 10.0182 30.0452C11.8165 33.9418 16.4385 35.6449 20.3352 33.8466L25.9825 31.2405L24.7446 28.558L19.0972 31.1642C16.683 32.2783 13.8149 31.2215 12.7007 28.8072ZM19.1408 27.5477L30.4355 22.3354L29.1325 19.5117L17.8377 24.7241L19.1408 27.5477ZM27.9381 13.2128L22.2907 15.819L23.5287 18.5015L29.176 15.8953C31.5903 14.7811 34.4584 15.838 35.5725 18.2522C36.6867 20.6665 35.6299 23.5346 33.2156 24.6487L27.5683 27.2549L28.8062 29.9374L34.4536 27.3312C38.3502 25.5329 40.0533 20.911 38.255 17.0143C36.4568 13.1176 31.8348 11.4145 27.9381 13.2128Z" fill="black"/>
</svg>
